<?xml version="1.0" standalone="no"?>
<!DOCTYPE svg PUBLIC "-//W3C//DTD SVG 20010904//EN"
 "http://www.w3.org/TR/2001/REC-SVG-20010904/DTD/svg10.dtd">
<svg version="1.0" xmlns="http://www.w3.org/2000/svg"
 width="200.000000pt" height="200.000000pt" viewBox="0 0 200.000000 200.000000"
 preserveAspectRatio="xMidYMid meet">

<g transform="translate(0.000000,200.000000) scale(0.100000,-0.100000)"
fill="#000000" stroke="none">
<path d="M1324 1860 l-2 -80 230 -2 229 -3 -1 -227 -1 -228 80 0 80 0 6 43 c3
23 5 161 3 307 l-3 265 -310 3 -310 2 -1 -80z"/>
<path d="M1245 1637 c-91 -30 -145 -76 -186 -157 -33 -66 -38 -195 -10 -270
43 -114 136 -180 262 -188 191 -11 305 88 317 274 l5 74 -152 0 -151 0 0 -60
0 -60 70 0 c83 0 90 -13 36 -65 -54 -51 -128 -53 -195 -6 -47 34 -68 122 -51
208 28 132 153 171 255 81 l34 -29 50 25 c27 14 52 30 56 36 11 18 -55 90
-106 116 -61 30 -174 40 -234 21z"/>
<path d="M377 1623 c-4 -3 -7 -136 -7 -295 l0 -288 81 0 81 0 -2 143 c-3 221
-8 208 48 139 60 -76 109 -140 167 -219 l47 -63 79 0 79 0 0 295 0 296 -77 -3
-78 -3 -5 -165 -5 -165 -50 65 c-27 36 -77 99 -110 140 -34 41 -69 87 -79 103
-17 25 -23 27 -90 27 -40 0 -76 -3 -79 -7z"/>
<path d="M301 871 c-12 -12 -21 -30 -21 -41 0 -28 37 -62 62 -58 33 5 33 26 1
30 -22 2 -28 8 -28 28 0 20 6 26 28 28 16 2 27 8 24 15 -6 21 -45 19 -66 -2z"/>
<path d="M412 874 c-35 -24 -28 -84 12 -103 25 -12 31 -11 55 6 35 27 40 75 9
97 -28 20 -48 20 -76 0z m66 -40 c4 -25 -22 -49 -43 -40 -15 5 -21 47 -8 60
14 14 48 1 51 -20z"/>
<path d="M941 869 c-28 -30 -27 -54 4 -85 41 -41 99 -13 97 47 -1 38 -8 47
-49 55 -24 5 -35 1 -52 -17z m74 -29 c7 -23 -10 -50 -30 -50 -20 0 -37 27 -30
50 4 13 15 20 30 20 15 0 26 -7 30 -20z"/>
<path d="M1450 870 c-24 -24 -26 -63 -4 -84 22 -23 81 -21 94 3 17 32 12 69
-12 85 -30 21 -54 20 -78 -4z m65 -45 c0 -25 -4 -30 -25 -30 -16 0 -26 6 -28
18 -6 30 6 49 30 45 18 -2 23 -9 23 -33z"/>
<path d="M530 825 l0 -55 35 0 c24 0 35 5 35 15 0 8 -9 15 -20 15 -17 0 -20 7
-20 40 0 29 -4 40 -15 40 -12 0 -15 -13 -15 -55z"/>
<path d="M610 825 l0 -55 35 0 c24 0 35 5 35 15 0 8 -9 15 -20 15 -17 0 -20 7
-20 40 0 29 -4 40 -15 40 -12 0 -15 -13 -15 -55z"/>
<path d="M716 848 c-26 -64 -28 -78 -12 -78 9 0 16 5 16 10 0 6 11 10 25 10
14 0 25 -4 25 -10 0 -5 7 -10 15 -10 19 0 19 2 -2 61 -21 59 -47 66 -67 17z
m44 -29 c0 -5 -4 -9 -10 -9 -5 0 -10 7 -10 16 0 8 5 12 10 9 6 -3 10 -10 10
-16z"/>
<path d="M820 826 l0 -56 34 0 c36 0 62 22 50 41 -4 7 -7 24 -8 38 -1 23 -6
26 -38 29 l-38 3 0 -55z m50 24 c0 -5 -4 -10 -10 -10 -5 0 -10 5 -10 10 0 6 5
10 10 10 6 0 10 -4 10 -10z m2 -45 c0 -5 -5 -11 -11 -13 -6 -2 -11 4 -11 13 0
9 5 15 11 13 6 -2 11 -8 11 -13z"/>
<path d="M1060 825 c0 -42 3 -55 15 -55 8 0 15 7 15 15 0 8 5 15 10 15 6 0 13
-7 16 -15 4 -8 15 -15 26 -15 18 0 18 2 4 22 -11 15 -12 25 -5 34 6 7 8 22 4
34 -5 16 -15 20 -46 20 l-39 0 0 -55z m58 23 c-6 -18 -25 -21 -25 -3 0 8 7 15
15 15 7 0 12 -5 10 -12z"/>
<path d="M1191 839 c-7 -23 -15 -47 -18 -55 -3 -8 1 -14 11 -14 9 0 16 5 16
10 0 6 11 10 25 10 14 0 25 -4 25 -10 0 -5 7 -10 16 -10 16 0 14 14 -12 78
-19 47 -48 43 -63 -9z m35 -26 c-10 -10 -19 5 -10 18 6 11 8 11 12 0 2 -7 1
-15 -2 -18z"/>
<path d="M1290 865 c0 -8 5 -15 10 -15 6 0 10 -18 10 -40 0 -29 4 -40 15 -40
11 0 15 11 15 39 0 22 5 43 10 46 21 13 9 25 -25 25 -24 0 -35 -5 -35 -15z"/>
<path d="M1380 825 c0 -42 3 -55 15 -55 12 0 15 13 15 55 0 42 -3 55 -15 55
-12 0 -15 -13 -15 -55z"/>
<path d="M1570 825 c0 -42 3 -55 15 -55 10 0 15 10 15 33 l1 32 28 -34 c39
-47 57 -38 53 28 -3 35 -8 51 -18 51 -9 0 -14 -11 -14 -32 l0 -33 -21 33 c-12
17 -29 32 -40 32 -16 0 -19 -8 -19 -55z"/>
<path d="M877 708 c-48 -17 -51 -82 -4 -108 39 -22 81 2 85 48 5 53 -27 77
-81 60z m48 -53 c0 -25 -4 -30 -25 -30 -16 0 -26 6 -28 18 -6 30 6 49 30 45
18 -2 23 -9 23 -33z"/>
<path d="M630 655 c0 -42 3 -55 15 -55 8 0 15 9 15 20 0 15 7 20 24 20 16 0
27 7 31 20 9 30 -12 50 -51 50 l-34 0 0 -55z m60 20 c0 -8 -7 -15 -15 -15 -8
0 -15 7 -15 15 0 8 7 15 15 15 8 0 15 -7 15 -15z"/>
<path d="M734 658 c1 -41 5 -54 19 -56 11 -2 17 3 17 15 1 17 1 17 14 1 14
-19 36 -24 36 -9 0 6 -4 12 -10 16 -6 4 -5 15 2 30 15 33 -4 55 -47 55 l-33 0
2 -52z m56 17 c0 -8 -4 -15 -10 -15 -5 0 -10 7 -10 15 0 8 5 15 10 15 6 0 10
-7 10 -15z"/>
<path d="M1010 665 c0 -35 -4 -45 -14 -43 -8 2 -16 -1 -17 -7 -5 -18 34 -18
48 1 19 26 17 94 -2 94 -11 0 -15 -12 -15 -45z"/>
<path d="M1060 655 l0 -55 35 0 c19 0 35 5 35 10 0 6 -9 10 -20 10 -11 0 -20
5 -20 10 0 6 6 10 14 10 26 0 28 20 4 29 l-23 10 23 0 c39 1 27 31 -13 31
l-35 0 0 -55z"/>
<path d="M1162 698 c-18 -18 -15 -69 6 -84 24 -19 62 -18 62 1 0 9 -6 15 -12
14 -29 -3 -38 2 -38 25 0 32 13 39 56 32 32 -7 34 -9 34 -46 0 -29 4 -40 15
-40 11 0 15 11 15 40 0 22 5 40 10 40 6 0 10 7 10 15 0 12 -15 15 -73 15 -43
0 -78 -5 -85 -12z"/>
<path d="M40 350 l0 -310 310 0 310 0 0 80 0 80 -230 0 -230 0 0 230 0 230
-80 0 -80 0 0 -310z"/>
<path d="M1565 629 c-72 -27 -138 -62 -152 -79 -6 -8 -28 -56 -47 -105 l-36
-90 33 -85 c46 -117 52 -125 89 -140 18 -8 61 -26 96 -42 34 -15 70 -28 80
-28 9 1 57 18 106 39 l88 38 -30 34 -30 33 -66 -28 -67 -29 -67 28 c-37 15
-72 33 -79 39 -7 6 -23 40 -37 77 l-24 65 25 65 c14 35 30 69 35 76 5 6 40 24
77 38 l67 27 64 -26 c35 -14 67 -26 70 -26 17 0 62 52 53 61 -11 11 -174 79
-188 78 -5 -1 -32 -10 -60 -20z"/>
<path d="M1812 521 l-32 -30 21 -53 c33 -81 33 -85 10 -137 -11 -28 -21 -57
-21 -66 0 -17 39 -75 50 -75 4 0 20 33 35 72 16 40 34 83 41 96 10 20 7 35
-23 105 -19 45 -37 90 -41 100 -6 16 -10 14 -40 -12z"/>
</g>
</svg>
